<?xml version="1.0" encoding="UTF-8"?>
<svg xmlns="http://www.w3.org/2000/svg" version="1.1" xmlns:xlink="http://www.w3.org/1999/xlink" viewBox="0 0 1400 360">
  <!-- Generator: Adobe Illustrator 30.1.0, SVG Export Plug-In . SVG Version: 2.1.1 Build 136)  -->
  <defs>
    <style>
      .st0 {
        stroke: #fff;
      }

      .st0, .st1, .st2, .st3, .st4, .st5, .st6 {
        fill: none;
      }

      .st0, .st7, .st4 {
        stroke-linecap: round;
      }

      .st0, .st4 {
        stroke-linejoin: round;
      }

      .st0, .st6 {
        stroke-width: 6.73px;
      }

      .st8 {
        fill: #fff;
        letter-spacing: -.03em;
      }

      .st8, .st9, .st3, .st10, .st11, .st12, .st13, .st14, .st15, .st16 {
        isolation: isolate;
      }

      .st8, .st9, .st13, .st14, .st15, .st16 {
        font-family: Arial-BoldMT, Arial;
        font-weight: 700;
      }

      .st8, .st13 {
        font-size: 100.06px;
      }

      .st1 {
        stroke: #d8d8d8;
        stroke-width: 8.98px;
      }

      .st17, .st7, .st4 {
        stroke-width: 2px;
      }

      .st17, .st12, .st15 {
        fill: #ececea;
      }

      .st17, .st6 {
        stroke: #e7a12b;
      }

      .st18 {
        fill: #a1adb2;
      }

      .st9 {
        fill: #171817;
      }

      .st9, .st14 {
        font-size: 12px;
      }

      .st19 {
        fill: #829199;
      }

      .st3 {
        opacity: .12;
      }

      .st3, .st11 {
        stroke: #676a66;
      }

      .st7, .st4 {
        stroke: #ececea;
      }

      .st10 {
        fill: #bbbcb8;
        font-size: 16px;
      }

      .st10, .st12 {
        font-family: ArialMT, Arial;
      }

      .st11 {
        fill: url(#grid);
        opacity: .72;
      }

      .st20, .st13, .st16 {
        fill: #e7a12b;
      }

      .st21 {
        fill: url(#_未命名的渐变);
      }

      .st12 {
        font-size: 21.17px;
      }

      .st22 {
        display: none;
      }

      .st5 {
        stroke: #777874;
      }

      .st13 {
        letter-spacing: -.03em;
      }

      .st14 {
        fill: #2f2f2d;
      }

      .st23 {
        fill: #c6cacc;
      }

      .st24 {
        fill: #7895a6;
      }

      .st15 {
        font-size: 30px;
      }

      .st16 {
        font-size: 15px;
        letter-spacing: .13em;
      }

      .st25 {
        fill: url(#_未命名的渐变_2);
      }
    </style>
    <linearGradient id="_未命名的渐变" data-name="未命名的渐变" x1="-258.81" y1="720" x2="-257.82" y2="719" gradientTransform="translate(362341 259201) scale(1400 -360)" gradientUnits="userSpaceOnUse">
      <stop offset="0" stop-color="#171817"/>
      <stop offset=".72" stop-color="#262725"/>
      <stop offset="1" stop-color="#171817"/>
    </linearGradient>
    <radialGradient id="_未命名的渐变_2" data-name="未命名的渐变 2" cx="-258.04" cy="719.82" fx="-258.04" fy="719.82" r=".7" gradientTransform="translate(362341 259201) scale(1400 -360)" gradientUnits="userSpaceOnUse">
      <stop offset="0" stop-color="#7895a6" stop-opacity=".2"/>
      <stop offset="1" stop-color="#171817" stop-opacity="0"/>
    </radialGradient>
    <pattern id="grid" x="0" y="0" width="36" height="36" patternTransform="translate(7 -15267) scale(1 -1)" patternUnits="userSpaceOnUse" viewBox="0 0 36 36">
      <g>
        <rect class="st2" width="36" height="36"/>
        <path class="st3" d="M36,36H0V0"/>
      </g>
    </pattern>
  </defs>
  <g id="_图层_2" data-name="图层_2" class="st22">
    <g>
      <path class="st24" d="M526.5,167.5h62c7.18,0,13,5.82,13,13h0c0,7.18-5.82,13-13,13h-62c-7.18,0-13-5.82-13-13h0c0-7.18,5.82-13,13-13Z"/>
      <text class="st9" transform="translate(538.72 185.5)"><tspan x="0" y="0">STATE</tspan></text>
      <path class="st7" d="M609.5,180.5h28"/>
      <path class="st4" d="M632.5,175.5l7,5-7,5"/>
      <path class="st17" d="M662.5,167.5h72c7.18,0,13,5.82,13,13h0c0,7.18-5.82,13-13,13h-72c-7.18,0-13-5.82-13-13h0c0-7.18,5.82-13,13-13Z"/>
      <text class="st14" transform="translate(681.83 185.5)"><tspan x="0" y="0">PRDP</tspan></text>
      <path class="st7" d="M755.5,180.5h28"/>
      <path class="st4" d="M778.5,175.5l7,5-7,5"/>
      <path class="st20" d="M808.5,167.5h66c7.18,0,13,5.82,13,13h0c0,7.18-5.82,13-13,13h-66c-7.18,0-13-5.82-13-13h0c0-7.18,5.82-13,13-13Z"/>
      <text class="st9" transform="translate(818.5 185.5)"><tspan x="0" y="0">ACTION</tspan></text>
    </g>
  </g>
  <g id="_图层_1" data-name="图层_1">
    <rect class="st21" width="1400" height="360" rx="28" ry="28"/>
    <rect class="st25" width="1400" height="360" rx="28" ry="28"/>
    <rect class="st11" x="28" y="28" width="1344" height="304" rx="20" ry="20"/>
    <line class="st5" x1="910" y1="82" x2="910" y2="278"/>
    <text class="st16" transform="translate(982 100)"><tspan x="0" y="0">PREDICT · PLAN · ACT</tspan></text>
    <text class="st15" transform="translate(980 140)"><tspan x="0" y="0">Predictive rolling-</tspan></text>
    <text class="st15" transform="translate(980 172)"><tspan x="0" y="0">denoising planning</tspan></text>
    <text class="st10" transform="translate(980 205)"><tspan x="0" y="0">Future states stay internal.</tspan></text>
    <text class="st10" transform="translate(980 223)"><tspan x="0" y="0">Selected actions reach the robot.</tspan></text>
    <path class="st19" d="M989.17,247h43.76c5.07,0,9.17,5.82,9.17,13h0c0,7.18-4.11,13-9.17,13h-43.76c-5.07,0-9.17-5.82-9.17-13h0c0-7.18,4.11-13,9.17-13Z"/>
    <text class="st9" transform="translate(998.05 264)"><tspan x="0" y="0">OBS</tspan></text>
    <g>
      <path class="st7" d="M1051,260h30"/>
      <path class="st4" d="M1074,255l7,5-7,5"/>
    </g>
    <path class="st17" d="M1108.23,247h47.65c4.75,0,8.6,5.82,8.6,13h0c0,7.18-3.85,13-8.6,13h-47.65c-4.75,0-8.6-5.82-8.6-13h0c0-7.18,3.85-13,8.6-13Z"/>
    <text class="st14" transform="translate(1115.49 264)"><tspan x="0" y="0">PRDP</tspan></text>
    <g>
      <path class="st7" d="M1183.11,260h28"/>
      <path class="st4" d="M1206.11,255l7,5-7,5"/>
    </g>
    <path class="st20" d="M1229.98,247h40.49c4.4,0,7.98,5.82,7.98,13h0c0,7.18-3.57,13-7.98,13h-40.49c-4.4,0-7.98-5.82-7.98-13h0c0-7.18,3.57-13,7.98-13Z"/>
    <text class="st9" transform="translate(1227.22 264)"><tspan x="0" y="0">ACTION</tspan></text>
    <rect id="state-1" class="st19" x="196.38" y="162.75" width="34.63" height="34.63" rx="3" ry="3"/>
    <rect id="state-2" class="st18" x="242.56" y="143.51" width="34.63" height="53.88" rx="3" ry="3"/>
    <rect id="state-3" class="st23" x="288.73" y="120.42" width="34.63" height="76.97" rx="3" ry="3"/>
    <rect id="state-4" class="st1" x="334.91" y="95.4" width="34.63" height="98.13" rx="3" ry="3"/>
    <line id="horizon-1" class="st0" x1="184.83" y1="207" x2="840" y2="207"/>
    <path id="action-1" class="st20" d="M202.15,217.58h23.09c3.19,0,5.77,2.58,5.77,5.77h0c0,3.19-2.58,5.77-5.77,5.77h-23.09c-3.19,0-5.77-2.58-5.77-5.77h0c0-3.19,2.58-5.77,5.77-5.77Z"/>
    <path id="action-2" class="st20" d="M248.33,217.58h23.09c3.19,0,5.77,2.58,5.77,5.77h0c0,3.19-2.58,5.77-5.77,5.77h-23.09c-3.19,0-5.77-2.58-5.77-5.77h0c0-3.19,2.58-5.77,5.77-5.77Z"/>
    <rect id="action-3" class="st20" x="288.73" y="217.58" width="34.63" height="25.01" rx="3" ry="3"/>
    <path id="action-4" class="st6" d="M340.69,220.47h23.09c3.19,0,5.77,2.58,5.77,5.77h0c0,3.19-2.58,5.77-5.77,5.77h-23.09c-3.19,0-5.77-2.58-5.77-5.77h0c0-3.19,2.58-5.77,5.77-5.77Z"/>
    <text class="st8" transform="translate(396.49 197.38)"><tspan x="0" y="0">Hoff</tspan></text>
    <text class="st13" transform="translate(584.18 197.38)"><tspan x="0" y="0">Man</tspan></text>
    <text id="descriptor-native" class="st12" transform="translate(396.49 232.98)"><tspan x="0" y="0">HIERARCHICAL ACTION-LEVEL DIFFUSION</tspan></text>
  </g>
</svg>